<?xml version="1.0" encoding="utf-8"?>
<!-- Generator: Adobe Illustrator 22.1.0, SVG Export Plug-In . SVG Version: 6.00 Build 0)  -->
<svg version="1.1" id="Layer_1" xmlns="http://www.w3.org/2000/svg" xmlns:xlink="http://www.w3.org/1999/xlink" x="0px" y="0px"
	 viewBox="0 0 1052.8 1035.2" style="enable-background:new 0 0 1052.8 1035.2;" xml:space="preserve">
<style type="text/css">
	.st0{fill:#FFFFFF;}
</style>
<path class="st0" d="M322.5,30.4l-12,12.1L49.8,303.7l-12,12.1v17l-0.1,368.8v17.1l12,12l261,260.9l12,12h17h369.1h17l12-12
	l260.8-260.9l12-12v-17v-369v-17l-12-12l-261-260.9l-12-12h-16.9l-369-0.3L322.5,30.4z M708.6,71.9l260.9,260.8v369L708.7,962.6
	l-369.1-0.1L78.7,701.7l0.1-368.9L339.5,71.4L708.6,71.9z"/>
<path class="st0" d="M275.8,604.4c0.6,0,2.4-0.1,5.5-0.2c3.1-0.1,6.8-0.4,10.9-0.6c4.1-0.3,8.6-0.7,13.4-1.3s9.2-1.4,13.2-2.6
	c4.8-1.4,10.2-3.8,16.2-7c6-3.3,12.5-9.2,19.6-17.7c6.8-8,12.2-16.6,16.2-26s6.9-18.3,8.7-26.7c1.9-8.4,3-15.9,3.6-22.6
	s0.9-11.4,0.9-14.3c0-9.9-0.9-18-2.8-24.3s-3.9-11.2-6.2-14.9c-1.7-2.6-3.3-4.6-4.9-6.2s-2.9-2.6-4-3.2c-5.4-4-11.7-6.5-19-7.5
	c-7.2-1-17.4-1.8-30.5-2.4h-19.2l-43.9,177.4L275.8,604.4L275.8,604.4z M309.9,365.2c11.9,0,24.3,0.3,37.1,0.8
	c12.8,0.6,25.3,2.3,37.5,5.3s23.6,7.6,34.1,13.9s19.6,15.1,27.3,26.4c2.5,3.7,4.9,7.7,7,12.2c2.1,4.4,4.1,9.4,5.8,15.1
	c1.7,5.7,3,12.1,4.1,19.2c1,7.1,1.5,15.4,1.5,24.7c0,6-0.5,14.4-1.5,25.4c-1,10.9-3.5,23.1-7.5,36.5s-10,27.1-18.1,41.2
	c-8.1,14.1-19.4,27.2-33.9,39.5c-4.6,4-11.7,9.1-21.3,15.3c-9.7,6.3-21.9,11.5-36.7,15.8c-15.3,4.8-31.4,7.6-48.2,8.3
	c-16.8,0.7-33.3,1.2-49.5,1.5h-88.3l75.5-301L309.9,365.2L309.9,365.2z"/>
<polygon class="st0" points="463.7,666.2 539.2,365.1 617.2,365.1 542.2,666.2 "/>
<path class="st0" d="M774.2,441.5L720.5,546H775L774.2,441.5z M831.7,365.2l31.6,301h-80.6l-4.3-59.7h-88.7l-35,59.7h-84.8
	l184.2-301H831.7z"/>
</svg>
